<svg xmlns="http://www.w3.org/2000/svg" xmlns:xlink="http://www.w3.org/1999/xlink" viewBox="0 0 1579.67 233.99"><defs><style>.cls-1{fill:#006837;}</style></defs><g id="Layer_2" data-name="Layer 2"><g id="Layer_1-2" data-name="Layer 1"><image width="597" height="595" transform="scale(0.39 0.39)" xlink:href="../../Downloads/EA/django-projects/coopformapp/form/templates/static/img/mitc-logo-trans.png"/><image width="1080" height="1080" transform="translate(1348) scale(0.21 0.21)" xlink:href="../../Downloads/EA/django-projects/coopformapp/form/templates/static/img/edsg2.png"/><path class="cls-1" d="M343.54,14.82V59.91H328l0-30.44-6.19,30.44H310.7l-6.53-29.74,0,29.74H288.57V14.82h23.05c.69,2.71,1.39,5.91,2.12,9.59l2.53,11.47,4.09-21.06Z"/><path class="cls-1" d="M366.83,14.82V59.91H349V14.82Z"/><path class="cls-1" d="M412.08,14.82V59.91H396.46l-9.26-20.5v20.5H372.3V14.82h14.9l10,20.3V14.82Z"/><path class="cls-1" d="M435.33,14.82V59.91H417.52V14.82Z"/><path class="cls-1" d="M479,28.47H462.48V25.13c0-1.56-.22-2.56-.64-3a2.88,2.88,0,0,0-2.11-.64,3.2,3.2,0,0,0-2.44.86,3.68,3.68,0,0,0-.82,2.62,5.36,5.36,0,0,0,.92,3.4q.89,1.14,5,2.76,11.9,4.64,15,7.62t3.09,9.61q0,4.82-1.71,7.1c-1.15,1.52-3.35,2.8-6.63,3.83a38.12,38.12,0,0,1-11.42,1.54,36.85,36.85,0,0,1-12.21-1.78c-3.37-1.19-5.57-2.7-6.62-4.54s-1.56-4.44-1.56-7.82v-3h16.54v5.48c0,1.69.23,2.78.7,3.26a3.37,3.37,0,0,0,2.47.72,3.46,3.46,0,0,0,2.65-.92,3.81,3.81,0,0,0,.87-2.72c0-2.66-.55-4.39-1.65-5.21a56.77,56.77,0,0,0-8.34-4.1,90.11,90.11,0,0,1-8.8-4.2,10.69,10.69,0,0,1-3.58-3.62,11.18,11.18,0,0,1-1.41-5.9c0-3.46.67-6,2-7.58a13.27,13.27,0,0,1,6.49-3.74,37.91,37.91,0,0,1,10.83-1.35A41.46,41.46,0,0,1,471,15.35c3.26,1,5.41,2.23,6.47,3.72s1.59,4,1.59,7.62Z"/><path class="cls-1" d="M521.63,14.82v9H511.05V59.91H493.24V23.85H482.7v-9Z"/><path class="cls-1" d="M525.35,14.82H538a147.53,147.53,0,0,1,17.07.64,13.06,13.06,0,0,1,7.28,3.28q2.81,2.63,2.81,8.39,0,5.27-2,7.07t-7.82,2.18q5.28.85,7.1,2.31a6.73,6.73,0,0,1,2.27,2.66c.29.8.44,3,.44,6.67V59.91H548.58v-15c0-2.42-.29-3.91-.87-4.49s-2.09-.86-4.55-.86V59.91H525.35Zm17.81,7.72v10a11.37,11.37,0,0,0,4.21-.54c.81-.36,1.21-1.54,1.21-3.52V26c0-1.43-.39-2.37-1.16-2.82A9.52,9.52,0,0,0,543.16,22.54Z"/><path class="cls-1" d="M608.46,14.82l-13,28.77V59.91H579V43.59L566.45,14.82h16.36q3.84,13.2,4.33,17.77a164.88,164.88,0,0,1,5-17.77Z"/><path class="cls-1" d="M667.49,41.22a65.3,65.3,0,0,1-.49,9.62A9,9,0,0,1,664,56,17,17,0,0,1,657,59.6a36.77,36.77,0,0,1-10.16,1.25A37.86,37.86,0,0,1,637,59.67a17.1,17.1,0,0,1-7-3.55A9.15,9.15,0,0,1,626.78,51a64.39,64.39,0,0,1-.5-9.75V33.51a65.69,65.69,0,0,1,.48-9.62,9.09,9.09,0,0,1,3-5.17,17,17,0,0,1,6.92-3.59,36.69,36.69,0,0,1,10.15-1.25,37.86,37.86,0,0,1,9.88,1.18,17.21,17.21,0,0,1,7,3.55A9.19,9.19,0,0,1,667,23.76a62.7,62.7,0,0,1,.51,9.75ZM649.67,26.41c0-2.1-.17-3.44-.53-4a2.34,2.34,0,0,0-2.17-.87,2.93,2.93,0,0,0-2.14.71c-.5.47-.74,1.87-.74,4.19V47.46c0,2.62.16,4.23.49,4.84s1.07.92,2.26.92,2-.35,2.33-1a15.29,15.29,0,0,0,.5-5.05Z"/><path class="cls-1" d="M672.56,14.82h30.17v9H690.37v8.54h11V41h-11V59.91H672.56Z"/><path class="cls-1" d="M740.13,14.82V59.91H722.32V14.82Z"/><path class="cls-1" d="M785.37,14.82V59.91H769.76l-9.27-20.5v20.5H745.6V14.82h14.89l10,20.3V14.82Z"/><path class="cls-1" d="M790.83,14.82h13.33q12.9,0,17.45.78a16.12,16.12,0,0,1,6.92,2.56,7.54,7.54,0,0,1,3,4,39.45,39.45,0,0,1,.59,8.59V46.51c0,4.05-.28,6.76-.86,8.12a6.47,6.47,0,0,1-3,3.2,16.26,16.26,0,0,1-5.33,1.62,73.73,73.73,0,0,1-9.56.46H790.83Zm17.82,7.72V52.19c2.56,0,4.14-.34,4.73-1s.89-2.52.89-5.53V28.13a16,16,0,0,0-.29-3.92,2.11,2.11,0,0,0-1.36-1.27A12.89,12.89,0,0,0,808.65,22.54Z"/><path class="cls-1" d="M877.76,14.82V45a35.38,35.38,0,0,1-.5,7.2,8.8,8.8,0,0,1-3,4.26,16.56,16.56,0,0,1-6.58,3.32,36.47,36.47,0,0,1-9.62,1.12,39.73,39.73,0,0,1-10.83-1.33,17.25,17.25,0,0,1-7-3.48,8.19,8.19,0,0,1-2.75-4.53,73.21,73.21,0,0,1-.42-10V14.82h17.81V48.63a8.87,8.87,0,0,0,.49,3.77,2.09,2.09,0,0,0,2,.82c1.12,0,1.85-.3,2.17-.9A11.18,11.18,0,0,0,860,48V14.82Z"/><path class="cls-1" d="M921.35,28.47H904.81V25.13c0-1.56-.21-2.56-.64-3a2.86,2.86,0,0,0-2.11-.64,3.19,3.19,0,0,0-2.43.86A3.68,3.68,0,0,0,898.8,25a5.3,5.3,0,0,0,.93,3.4q.88,1.14,5,2.76,11.9,4.64,15,7.62t3.09,9.61q0,4.82-1.71,7.1t-6.62,3.83a38.14,38.14,0,0,1-11.43,1.54,36.83,36.83,0,0,1-12.2-1.78q-5.05-1.78-6.62-4.54c-1-1.84-1.57-4.44-1.57-7.82v-3h16.54v5.48c0,1.69.24,2.78.7,3.26a3.4,3.4,0,0,0,2.48.72A3.45,3.45,0,0,0,905,52.3a3.81,3.81,0,0,0,.87-2.72c0-2.66-.55-4.39-1.65-5.21a56.77,56.77,0,0,0-8.34-4.1,90.11,90.11,0,0,1-8.8-4.2,10.58,10.58,0,0,1-3.57-3.62,11.09,11.09,0,0,1-1.42-5.9c0-3.46.67-6,2-7.58a13.32,13.32,0,0,1,6.49-3.74,37.94,37.94,0,0,1,10.84-1.35,41.44,41.44,0,0,1,11.82,1.47q4.89,1.49,6.48,3.72t1.58,7.62Z"/><path class="cls-1" d="M964,14.82v9H953.38V59.91H935.57V23.85H925v-9Z"/><path class="cls-1" d="M967.68,14.82h12.61a147.29,147.29,0,0,1,17.07.64,13.06,13.06,0,0,1,7.28,3.28q2.82,2.63,2.82,8.39c0,3.51-.67,5.87-2,7.07s-3.94,1.94-7.83,2.18q5.28.85,7.11,2.31a6.77,6.77,0,0,1,2.26,2.66c.3.8.45,3,.45,6.67V59.91H990.91v-15c0-2.42-.29-3.91-.87-4.49s-2.09-.86-4.54-.86V59.91H967.68Zm17.82,7.72v10a11.44,11.44,0,0,0,4.21-.54c.8-.36,1.2-1.54,1.2-3.52V26c0-1.43-.39-2.37-1.16-2.82A9.5,9.5,0,0,0,985.5,22.54Z"/><path class="cls-1" d="M1050.8,14.82l-13,28.77V59.91h-16.5V43.59l-12.53-28.77h16.37q3.82,13.2,4.32,17.77a164.88,164.88,0,0,1,5-17.77Z"/><path class="cls-1" d="M1058.15,51.08v4a10.54,10.54,0,0,1-1.14,5.2,9,9,0,0,1-4,3.46,20.17,20.17,0,0,1-6.37,1.89V62.44c1.7-.63,2.65-1.48,2.88-2.53h-2.88V51.08Z"/><path class="cls-1" d="M1114.42,14.82v9h-10.58V59.91H1086V23.85H1075.5v-9Z"/><path class="cls-1" d="M1118.14,14.82h12.61a147.62,147.62,0,0,1,17.08.64,13,13,0,0,1,7.27,3.28q2.82,2.63,2.82,8.39c0,3.51-.67,5.87-2,7.07s-3.94,1.94-7.83,2.18q5.3.85,7.11,2.31a6.69,6.69,0,0,1,2.26,2.66c.3.8.45,3,.45,6.67V59.91h-16.55v-15c0-2.42-.29-3.91-.86-4.49s-2.1-.86-4.55-.86V59.91h-17.82ZM1136,22.54v10a11.44,11.44,0,0,0,4.21-.54c.8-.36,1.2-1.54,1.2-3.52V26c0-1.43-.38-2.37-1.16-2.82A9.47,9.47,0,0,0,1136,22.54Z"/><path class="cls-1" d="M1195.91,14.82l10.18,45.09h-18.2l-1-8.11h-6.37l-1.07,8.11h-18.41l9.08-45.09Zm-9.44,29q-1.35-7.65-2.72-18.93-2.71,12.94-3.41,18.93Z"/><path class="cls-1" d="M1209.31,14.82h13.33q12.9,0,17.45.78a16.17,16.17,0,0,1,6.92,2.56,7.54,7.54,0,0,1,3,4,39.45,39.45,0,0,1,.59,8.59V46.51q0,6.08-.86,8.12a6.47,6.47,0,0,1-3,3.2,16.34,16.34,0,0,1-5.33,1.62,73.84,73.84,0,0,1-9.56.46h-22.47Zm17.81,7.72V52.19c2.57,0,4.15-.34,4.74-1s.89-2.52.89-5.53V28.13a15.34,15.34,0,0,0-.3-3.92,2.09,2.09,0,0,0-1.35-1.27A13,13,0,0,0,1227.12,22.54Z"/><path class="cls-1" d="M1255.71,14.82h29.71v9h-11.89v8.54h11.13V41h-11.13v9.91h13.07v9h-30.89Z"/><path class="cls-1" d="M562.89,115.31v7.61l-4.76,2,6,7.52H548.27l-2-2.5a37.92,37.92,0,0,1-15.06,3.45q-7.45,0-11.47-3.26a9.8,9.8,0,0,1-4-7.85,7.29,7.29,0,0,1,2.37-5.77,18,18,0,0,1,7.11-3.39q-6.76-3.21-6.77-8.66,0-4.71,4.83-7.58T536.49,94q7.62,0,12,2.81c2.92,1.88,4.37,4.27,4.37,7.16q0,4.58-5.33,8.1l6,7.18Zm-22.53,9.54-5.52-6.08c-2.11,1.26-3.17,2.63-3.17,4.09a2.87,2.87,0,0,0,1,2.38,4.61,4.61,0,0,0,2.93.8A12.14,12.14,0,0,0,540.36,124.85Zm-3.87-17.44c2-1.66,2.92-3.23,2.92-4.74a2.41,2.41,0,0,0-.85-1.78,3.28,3.28,0,0,0-2.37-.81,3.16,3.16,0,0,0-2.11.62,2.3,2.3,0,0,0-.72,1.86C533.36,104.31,534.4,105.92,536.49,107.41Z"/><path class="cls-1" d="M624.5,107H606.68V99.15c0-2.27-.19-3.7-.57-4.26S604.89,94,603.6,94c-1.47,0-2.4.34-2.8,1s-.59,2.17-.59,4.46v20.94a10,10,0,0,0,.59,4.29c.4.66,1.29,1,2.67,1s2.19-.34,2.6-1,.61-2.24.61-4.71v-5.67H624.5v1.76q0,7-1.51,9.92t-6.64,5.13a32.17,32.17,0,0,1-12.67,2.21,37.68,37.68,0,0,1-12.9-1.87q-5.09-1.86-6.73-5.16t-1.65-9.93V103.26a38.57,38.57,0,0,1,.51-7.31,8.77,8.77,0,0,1,3-4.69,17.66,17.66,0,0,1,7-3.55,36.69,36.69,0,0,1,10.26-1.3,36.11,36.11,0,0,1,13,2c3.41,1.34,5.66,3,6.73,5s1.61,5.1,1.61,9.31Z"/><path class="cls-1" d="M670.21,113.76a64,64,0,0,1-.49,9.62,9.08,9.08,0,0,1-3,5.16,17.08,17.08,0,0,1-6.92,3.59,36.75,36.75,0,0,1-10.16,1.26,37.82,37.82,0,0,1-9.87-1.19,17.09,17.09,0,0,1-7.05-3.55,9.07,9.07,0,0,1-3.17-5.15,62.46,62.46,0,0,1-.51-9.74V106a64,64,0,0,1,.49-9.62,9,9,0,0,1,3-5.16,17.15,17.15,0,0,1,6.92-3.6,37.13,37.13,0,0,1,10.15-1.25,37.81,37.81,0,0,1,9.88,1.18,17.33,17.33,0,0,1,7,3.55,9.12,9.12,0,0,1,3.17,5.16,62.46,62.46,0,0,1,.51,9.74ZM652.4,98.94a9.43,9.43,0,0,0-.53-4,2.34,2.34,0,0,0-2.18-.88,3,3,0,0,0-2.14.71c-.49.47-.74,1.87-.74,4.19v21c0,2.62.16,4.24.49,4.85s1.08.92,2.26.92,2-.35,2.33-1.06.51-2.39.51-5Z"/><path class="cls-1" d="M716.06,113.76a65.4,65.4,0,0,1-.49,9.62,9,9,0,0,1-3.05,5.16,17,17,0,0,1-6.91,3.59,36.75,36.75,0,0,1-10.16,1.26,37.84,37.84,0,0,1-9.88-1.19,17,17,0,0,1-7-3.55,9.09,9.09,0,0,1-3.18-5.15,64.14,64.14,0,0,1-.5-9.74V106a65.78,65.78,0,0,1,.48-9.62,9.06,9.06,0,0,1,3-5.16,17.15,17.15,0,0,1,6.92-3.6,37.08,37.08,0,0,1,10.15-1.25,37.86,37.86,0,0,1,9.88,1.18,17.33,17.33,0,0,1,7,3.55,9.18,9.18,0,0,1,3.17,5.16,62.46,62.46,0,0,1,.51,9.74ZM698.24,98.94c0-2.1-.17-3.44-.53-4a2.32,2.32,0,0,0-2.17-.88,3,3,0,0,0-2.14.71c-.49.47-.74,1.87-.74,4.19v21c0,2.62.16,4.24.49,4.85s1.07.92,2.26.92,2-.35,2.33-1.06a15.26,15.26,0,0,0,.5-5Z"/><path class="cls-1" d="M721.13,87.36h17.94a63.36,63.36,0,0,1,11.19.75,14.94,14.94,0,0,1,5.88,2.17,7.12,7.12,0,0,1,2.67,3.44,20.76,20.76,0,0,1,.7,6.25v3.93c0,2.88-.45,5-1.36,6.29s-2.56,2.33-5,3a34.82,34.82,0,0,1-9.45,1h-4.79v18.16H721.13Zm17.81,7.71v11.47l1.32,0a5.43,5.43,0,0,0,3.4-.79c.64-.53,1-1.63,1-3.3V98.77c0-1.54-.36-2.54-1.1-3S741.26,95.07,738.94,95.07Z"/><path class="cls-1" d="M763.67,87.36h29.71v9H781.49v8.55h11.12v8.57H781.49v9.92h13.07v9H763.67Z"/><path class="cls-1" d="M798.74,87.36h12.61a145,145,0,0,1,17.07.64,13,13,0,0,1,7.28,3.27q2.82,2.63,2.82,8.4c0,3.5-.67,5.86-2,7.07s-3.94,1.93-7.83,2.17c3.53.58,5.89,1.35,7.11,2.31a6.75,6.75,0,0,1,2.26,2.66q.45,1.22.45,6.67v11.89H822v-15c0-2.41-.29-3.91-.87-4.48s-2.09-.87-4.54-.87v20.33H798.74Zm17.82,7.71v10a11.39,11.39,0,0,0,4.21-.55c.8-.36,1.2-1.53,1.2-3.52V98.55c0-1.43-.39-2.37-1.16-2.81A9.3,9.3,0,0,0,816.56,95.07Z"/><path class="cls-1" d="M876.51,87.36l10.18,45.08h-18.2l-1-8.1h-6.37l-1.07,8.1H841.68l9.08-45.08Zm-9.44,29q-1.37-7.66-2.72-18.94-2.72,12.95-3.41,18.94Z"/><path class="cls-1" d="M923.12,87.36v9H912.54v36.06H894.73V96.38H884.19v-9Z"/><path class="cls-1" d="M944.66,87.36v45.08H926.84V87.36Z"/><path class="cls-1" d="M994.34,87.36l-9.06,45.08H958.22L947.93,87.36h18.78Q970,106,971.39,118.88q1.38-13,2.93-23.14l1.23-8.38Z"/><path class="cls-1" d="M997.55,87.36h29.7v9h-11.88v8.55h11.12v8.57h-11.12v9.92h13.07v9H997.55Z"/><path class="cls-1" d="M1070.8,101h-16.55V97.66c0-1.56-.21-2.55-.63-3a2.89,2.89,0,0,0-2.12-.64,3.23,3.23,0,0,0-2.43.86,3.68,3.68,0,0,0-.82,2.62,5.28,5.28,0,0,0,.92,3.4c.59.77,2.27,1.68,5,2.76q11.89,4.65,15,7.63t3.09,9.6q0,4.82-1.72,7.1c-1.14,1.53-3.35,2.8-6.62,3.83a38.1,38.1,0,0,1-11.42,1.55,37.11,37.11,0,0,1-12.21-1.78c-3.37-1.19-5.58-2.71-6.62-4.54a16.09,16.09,0,0,1-1.57-7.83v-2.95h16.55v5.49c0,1.69.23,2.77.7,3.25a3.33,3.33,0,0,0,2.47.73,3.49,3.49,0,0,0,2.65-.92,3.87,3.87,0,0,0,.86-2.73q0-4-1.65-5.21a56.24,56.24,0,0,0-8.33-4.09,87.08,87.08,0,0,1-8.8-4.21A10.69,10.69,0,0,1,1033,105a11.16,11.16,0,0,1-1.41-5.9c0-3.45.67-6,2-7.57a13.24,13.24,0,0,1,6.5-3.75,37.91,37.91,0,0,1,10.83-1.35,41.08,41.08,0,0,1,11.83,1.48c3.26,1,5.41,2.22,6.47,3.71s1.59,4,1.59,7.62Z"/><path class="cls-1" d="M347.22,164.81l-11.1,13.75h-7.29l11.65-13.92H328V161.4h19.18Z"/><path class="cls-1" d="M351.86,170.7v-8.1h-4.49v-1.91h12.8v1.91h-4.49v8.1Z"/><path class="cls-1" d="M374.42,170.7H370.6v-4.44h-5.2v4.44h-3.82v-10h3.82v3.66h5.2v-3.66h3.82Z"/><path class="cls-1" d="M406.66,164.67h-11v3.24h10.08v3.27H395.71v7.38H389.2V161.4h17.46Z"/><path class="cls-1" d="M415.1,178.56H409V160.62h6.13Z"/><path class="cls-1" d="M438.26,172.09a5.82,5.82,0,0,1-2.66,5q-2.66,1.83-7.5,1.83t-7.49-1.83a6.1,6.1,0,0,1,0-10.09q2.67-1.83,7.49-1.83t7.49,1.84A5.81,5.81,0,0,1,438.26,172.09Zm-6.29,0a5.54,5.54,0,0,0-.29-1.92,3.09,3.09,0,0,0-.8-1.23,3,3,0,0,0-1.22-.67,5.73,5.73,0,0,0-1.56-.2,6.17,6.17,0,0,0-1.49.17,3.16,3.16,0,0,0-1.23.64,3.09,3.09,0,0,0-.84,1.24,5.32,5.32,0,0,0-.31,2,5.39,5.39,0,0,0,.29,1.92,3.33,3.33,0,0,0,.78,1.17,2.81,2.81,0,0,0,1.22.65,6,6,0,0,0,1.63.21,5.65,5.65,0,0,0,1.5-.21,2.81,2.81,0,0,0,1.22-.62,3.3,3.3,0,0,0,.82-1.19A5.29,5.29,0,0,0,432,172.12Z"/><path class="cls-1" d="M460.17,172.09a5.82,5.82,0,0,1-2.65,5Q454.87,179,450,179t-7.49-1.83a6.1,6.1,0,0,1,0-10.09q2.67-1.83,7.49-1.83t7.5,1.84A5.82,5.82,0,0,1,460.17,172.09Zm-6.29,0a5.32,5.32,0,0,0-.29-1.92,3.08,3.08,0,0,0-.79-1.23,3,3,0,0,0-1.23-.67,5.63,5.63,0,0,0-1.56-.2,6.23,6.23,0,0,0-1.49.17,3.06,3.06,0,0,0-1.22.64,3.09,3.09,0,0,0-.84,1.24,5.31,5.31,0,0,0-.32,2,5.15,5.15,0,0,0,.3,1.92,3.31,3.31,0,0,0,.77,1.17,2.85,2.85,0,0,0,1.23.65,5.88,5.88,0,0,0,1.62.21,5.65,5.65,0,0,0,1.5-.21,2.76,2.76,0,0,0,1.22-.62,3.18,3.18,0,0,0,.82-1.19A5.29,5.29,0,0,0,453.88,172.12Z"/><path class="cls-1" d="M476.17,169.43h-.51a7.56,7.56,0,0,0-1-.12c-.45,0-.94,0-1.47,0a12.13,12.13,0,0,0-2,.18c-.7.13-1.39.27-2,.44v8.67H463V165.62h6.13v1.85c.28-.17.66-.38,1.16-.64a13.84,13.84,0,0,1,1.36-.62,10.8,10.8,0,0,1,1.55-.45,7.78,7.78,0,0,1,1.67-.19h.67l.66,0Z"/><path class="cls-1" d="M483,174l-6.13,8.8h-3.73l3.45-8.8Z"/><path class="cls-1" d="M518.47,173.3a3.59,3.59,0,0,1-.73,2.25,5.57,5.57,0,0,1-2,1.6,11.6,11.6,0,0,1-3.23,1.09,26.21,26.21,0,0,1-4.48.32H497.61V161.4h9.21c1.92,0,3.37,0,4.36.14a11.65,11.65,0,0,1,2.77.61,4.75,4.75,0,0,1,2.1,1.32,2.9,2.9,0,0,1,.69,1.91,3.11,3.11,0,0,1-1,2.24,5.69,5.69,0,0,1-2.63,1.44v.09a8.74,8.74,0,0,1,3.87,1.37A3.24,3.24,0,0,1,518.47,173.3Zm-8.39-7.05a1.45,1.45,0,0,0-.32-.85,1.79,1.79,0,0,0-1-.64,6.11,6.11,0,0,0-1.53-.2l-2.64,0h-.45v3.63H505c1.12,0,1.91,0,2.36,0a5.08,5.08,0,0,0,1.39-.24,2,2,0,0,0,1.08-.67A1.66,1.66,0,0,0,510.08,166.25Zm1.65,7a1.62,1.62,0,0,0-.49-1.24,3.25,3.25,0,0,0-1.47-.68,7.49,7.49,0,0,0-1.64-.17l-2.79,0h-1.21v4.3h.35c1.7,0,2.88,0,3.54,0a7.83,7.83,0,0,0,2-.31,2.65,2.65,0,0,0,1.31-.74A1.72,1.72,0,0,0,511.73,173.22Z"/><path class="cls-1" d="M527.64,178.56h-6.13V160.62h6.13Z"/><path class="cls-1" d="M550.8,172.09a5.82,5.82,0,0,1-2.66,5c-1.76,1.22-4.27,1.83-7.5,1.83s-5.71-.61-7.49-1.83a6.1,6.1,0,0,1,0-10.09q2.67-1.83,7.49-1.83t7.5,1.84A5.82,5.82,0,0,1,550.8,172.09Zm-6.29,0a5.54,5.54,0,0,0-.29-1.92,3.09,3.09,0,0,0-.8-1.23,3,3,0,0,0-1.22-.67,5.73,5.73,0,0,0-1.56-.2,6.17,6.17,0,0,0-1.49.17,3.16,3.16,0,0,0-1.23.64,3.09,3.09,0,0,0-.84,1.24,5.32,5.32,0,0,0-.31,2,5.15,5.15,0,0,0,.3,1.92,3.18,3.18,0,0,0,.77,1.17,2.81,2.81,0,0,0,1.22.65,6,6,0,0,0,1.63.21,5.65,5.65,0,0,0,1.5-.21,2.81,2.81,0,0,0,1.22-.62,3.3,3.3,0,0,0,.82-1.19A5.29,5.29,0,0,0,544.51,172.12Z"/><path class="cls-1" d="M563.48,178.91a22.79,22.79,0,0,1-4.46-.41,11.79,11.79,0,0,1-3.51-1.24,6.52,6.52,0,0,1-2.29-2.12,5.92,5.92,0,0,1,.07-6.16,6.87,6.87,0,0,1,2.41-2.14,11.94,11.94,0,0,1,3.46-1.2,22.4,22.4,0,0,1,4.15-.38,20.93,20.93,0,0,1,3.25.25,18.83,18.83,0,0,1,3.28.79v3.45h-.79c-.24-.15-.55-.32-.9-.5a9,9,0,0,0-1.17-.51,10.08,10.08,0,0,0-1.5-.41,9.8,9.8,0,0,0-1.88-.17,5.5,5.5,0,0,0-3.63,1.08,3.59,3.59,0,0,0-1.29,2.9,3.31,3.31,0,0,0,1.38,2.91,6.31,6.31,0,0,0,3.65.95,11,11,0,0,0,2-.17,9,9,0,0,0,1.51-.42,6.89,6.89,0,0,0,1-.5l.75-.46h.79v3.45l-1.22.35a13.11,13.11,0,0,1-1.41.32c-.59.11-1.15.19-1.67.25A18.81,18.81,0,0,1,563.48,178.91Z"/><path class="cls-1" d="M592.51,178.56h-7.28l-5.33-5.64-.94.85v4.79h-6.13V160.62H579v10.06l5.81-5.06H592l-6.88,5.57Z"/><path class="cls-1" d="M616.54,178.9q-5.87,0-9.31-2.34a7.46,7.46,0,0,1-3.46-6.56,7.58,7.58,0,0,1,3.46-6.51q3.46-2.43,9.33-2.43c1,0,2,0,2.8.12s1.63.18,2.39.32c.59.11,1.24.27,1.94.47s1.27.38,1.7.52v4.09h-.67l-1.19-.66a14.78,14.78,0,0,0-1.63-.75,12.71,12.71,0,0,0-2-.63,9.51,9.51,0,0,0-2.29-.26,11.13,11.13,0,0,0-2.6.29,7.12,7.12,0,0,0-2.25,1,5,5,0,0,0-1.6,1.78,5.26,5.26,0,0,0-.62,2.64,5.2,5.2,0,0,0,.64,2.69,5.3,5.3,0,0,0,1.7,1.76,7.24,7.24,0,0,0,2.27.93,11.29,11.29,0,0,0,2.5.29,10.51,10.51,0,0,0,2.47-.28,12.92,12.92,0,0,0,2-.63,14.93,14.93,0,0,0,1.54-.73l1.15-.65h.6v4l-1.67.5a19.63,19.63,0,0,1-1.94.48c-.82.16-1.58.28-2.29.37A27.67,27.67,0,0,1,616.54,178.9Z"/><path class="cls-1" d="M636.63,174l-6.13,8.8h-3.73l3.45-8.8Z"/><path class="cls-1" d="M659.33,178.87a31.46,31.46,0,0,1-5.26-.38,37.57,37.57,0,0,1-4.21-.94v-4.08h.59a17.41,17.41,0,0,0,4.33,1.68,19.14,19.14,0,0,0,4.59.59c.37,0,.87,0,1.48-.08a7.54,7.54,0,0,0,1.48-.26,3.42,3.42,0,0,0,1.15-.55,1.08,1.08,0,0,0,.48-.92,1.2,1.2,0,0,0-.77-1.05,6.22,6.22,0,0,0-1.84-.59c-.89-.15-1.84-.3-2.85-.44s-2-.31-2.83-.51a9.63,9.63,0,0,1-4.34-1.89,3.81,3.81,0,0,1-1.31-3q0-2.41,3.1-3.9a17.68,17.68,0,0,1,7.74-1.5,34.2,34.2,0,0,1,4.63.32,26.82,26.82,0,0,1,4.13.84v3.92H669a15.37,15.37,0,0,0-3.55-1.39,16.74,16.74,0,0,0-4.3-.56,14.08,14.08,0,0,0-1.54.08,8.1,8.1,0,0,0-1.44.31,3.05,3.05,0,0,0-1.06.55,1,1,0,0,0-.44.81,1.14,1.14,0,0,0,.71,1,9.47,9.47,0,0,0,2.74.7l2.53.38c.81.13,1.68.29,2.6.51a10.2,10.2,0,0,1,4,1.73,3.56,3.56,0,0,1,1.32,2.88q0,2.56-3.06,4.12A18.48,18.48,0,0,1,659.33,178.87Z"/><path class="cls-1" d="M683.75,178.91q-5.57,0-8.54-1.76a5.49,5.49,0,0,1-3-5A5.86,5.86,0,0,1,675,167.1q2.78-1.89,7.74-1.89c3,0,5.28.54,6.8,1.6a5.27,5.27,0,0,1,2.28,4.59v1.45H678.39a2.75,2.75,0,0,0,.58,1.51,3.48,3.48,0,0,0,1.3,1,6.58,6.58,0,0,0,1.83.51,15,15,0,0,0,2.3.16,13.32,13.32,0,0,0,2.1-.16,14.88,14.88,0,0,0,1.89-.4c.5-.15,1-.31,1.4-.48s.77-.32,1-.45h.65v3.33l-1.38.37c-.41.11-1,.22-1.71.34s-1.35.2-2.06.27S684.77,178.91,683.75,178.91Zm2-8.49a2.46,2.46,0,0,0-.9-1.95,4.22,4.22,0,0,0-2.6-.66,4.8,4.8,0,0,0-2.79.7,2.49,2.49,0,0,0-1.12,1.91Z"/><path class="cls-1" d="M704.63,178.91a22.79,22.79,0,0,1-4.46-.41,11.79,11.79,0,0,1-3.51-1.24,6.43,6.43,0,0,1-2.29-2.12,5.92,5.92,0,0,1,.07-6.16,6.87,6.87,0,0,1,2.41-2.14,11.94,11.94,0,0,1,3.46-1.2,22.37,22.37,0,0,1,4.14-.38,21,21,0,0,1,3.26.25,18.83,18.83,0,0,1,3.28.79v3.45h-.79c-.25-.15-.55-.32-.9-.5a9,9,0,0,0-1.17-.51,10.08,10.08,0,0,0-1.5-.41,9.8,9.8,0,0,0-1.88-.17,5.5,5.5,0,0,0-3.63,1.08,3.59,3.59,0,0,0-1.29,2.9,3.31,3.31,0,0,0,1.38,2.91,6.31,6.31,0,0,0,3.65.95,11.08,11.08,0,0,0,2-.17,9.25,9.25,0,0,0,1.51-.42,7.38,7.38,0,0,0,1.05-.5l.75-.46H711v3.45l-1.22.35a13.11,13.11,0,0,1-1.41.32c-.6.11-1.15.19-1.67.25A18.81,18.81,0,0,1,704.63,178.91Z"/><path class="cls-1" d="M727.18,169.43h-.51a7.56,7.56,0,0,0-1-.12c-.45,0-.94,0-1.47,0a12.13,12.13,0,0,0-2,.18c-.7.13-1.39.27-2.06.44v8.67H714V165.62h6.13v1.85c.28-.17.67-.38,1.17-.64a13.84,13.84,0,0,1,1.36-.62,10.8,10.8,0,0,1,1.55-.45,7.71,7.71,0,0,1,1.67-.19h.67l.66,0Z"/><path class="cls-1" d="M739.63,178.91c-3.72,0-6.56-.59-8.54-1.76a5.49,5.49,0,0,1-3-5,5.84,5.84,0,0,1,2.77-5.06q2.76-1.89,7.74-1.89c3,0,5.28.54,6.79,1.6a5.27,5.27,0,0,1,2.28,4.59v1.45H734.27a2.75,2.75,0,0,0,.58,1.51,3.36,3.36,0,0,0,1.29,1,6.76,6.76,0,0,0,1.84.51,14.92,14.92,0,0,0,2.3.16,13.32,13.32,0,0,0,2.1-.16,14.88,14.88,0,0,0,1.89-.4c.5-.15,1-.31,1.39-.48s.78-.32,1-.45h.65v3.33l-1.37.37c-.42.11-1,.22-1.71.34s-1.35.2-2.06.27S740.64,178.91,739.63,178.91Zm2-8.49a2.52,2.52,0,0,0-.9-1.95,4.24,4.24,0,0,0-2.6-.66,4.81,4.81,0,0,0-2.8.7,2.5,2.5,0,0,0-1.11,1.91Z"/><path class="cls-1" d="M758.24,178.81a11.1,11.1,0,0,1-5.46-1,3.57,3.57,0,0,1-1.7-3.32v-6h-2.35v-2.81h2.35v-3.71h6.13v3.71h5.9v2.81h-5.9V173c0,.45,0,.85,0,1.18a1.74,1.74,0,0,0,.28.91,1.66,1.66,0,0,0,.87.64,5.29,5.29,0,0,0,1.81.24,8.16,8.16,0,0,0,1.29-.14,6.83,6.83,0,0,0,1.11-.25h.53v2.85c-.67.11-1.37.2-2.12.27S759.33,178.81,758.24,178.81Z"/><path class="cls-1" d="M776.63,177.19l-1.13.62a7.17,7.17,0,0,1-1.34.55,11.41,11.41,0,0,1-1.6.41,13.46,13.46,0,0,1-2.18.14,7.65,7.65,0,0,1-4.34-1.16,3.38,3.38,0,0,1-1.72-2.9,3.19,3.19,0,0,1,.87-2.33,6.15,6.15,0,0,1,2.53-1.41,18.31,18.31,0,0,1,4-.73q2.31-.21,5-.33V170a1.52,1.52,0,0,0-1.2-1.48,12,12,0,0,0-3.6-.41,15,15,0,0,0-2.54.26,28.66,28.66,0,0,0-2.84.67H766v-3.13c.61-.11,1.59-.25,2.95-.41a37.14,37.14,0,0,1,4.1-.23q5.07,0,7.4,1.11a3.6,3.6,0,0,1,2.32,3.39v8.81h-6.1Zm0-2v-2.69l-2.52.17a12,12,0,0,0-1.89.3,3,3,0,0,0-1.26.56,1.25,1.25,0,0,0-.44,1,1.27,1.27,0,0,0,.74,1.25,5.65,5.65,0,0,0,2.2.34,6,6,0,0,0,1.65-.25A5.38,5.38,0,0,0,776.63,175.18Z"/><path class="cls-1" d="M799.79,169.43h-.51a7.56,7.56,0,0,0-1-.12c-.45,0-.94,0-1.47,0a12.13,12.13,0,0,0-2,.18c-.7.13-1.39.27-2,.44v8.67h-6.14V165.62h6.14v1.85c.28-.17.66-.38,1.16-.64a13.84,13.84,0,0,1,1.36-.62,10.8,10.8,0,0,1,1.55-.45,7.78,7.78,0,0,1,1.67-.19h.67l.66,0Z"/><path class="cls-1" d="M808,163.77h-6.48v-3.15H808Zm-.18,14.79h-6.13V165.62h6.13Z"/><path class="cls-1" d="M822.77,177.19l-1.13.62a7.17,7.17,0,0,1-1.34.55,11.41,11.41,0,0,1-1.6.41,13.46,13.46,0,0,1-2.18.14,7.65,7.65,0,0,1-4.34-1.16,3.38,3.38,0,0,1-1.72-2.9,3.19,3.19,0,0,1,.87-2.33,6.11,6.11,0,0,1,2.52-1.41,18.53,18.53,0,0,1,4-.73c1.54-.14,3.2-.25,5-.33V170a1.52,1.52,0,0,0-1.2-1.48,12,12,0,0,0-3.6-.41,15.06,15.06,0,0,0-2.54.26c-1,.18-1.91.4-2.83.67h-.53v-3.13c.61-.11,1.59-.25,2.94-.41a37.42,37.42,0,0,1,4.1-.23q5.08,0,7.4,1.11a3.59,3.59,0,0,1,2.32,3.39v8.81h-6.09Zm0-2v-2.69l-2.52.17a11.94,11.94,0,0,0-1.9.3,3,3,0,0,0-1.25.56,1.22,1.22,0,0,0-.44,1,1.25,1.25,0,0,0,.74,1.25,5.65,5.65,0,0,0,2.2.34,5.94,5.94,0,0,0,1.64-.25A5.44,5.44,0,0,0,822.77,175.18Z"/><path class="cls-1" d="M840.32,178.81a11,11,0,0,1-5.45-1,3.56,3.56,0,0,1-1.71-3.32v-6h-2.35v-2.81h2.35v-3.71h6.13v3.71h5.9v2.81h-5.9V173c0,.45,0,.85,0,1.18a1.66,1.66,0,0,0,.28.91,1.59,1.59,0,0,0,.86.64,5.32,5.32,0,0,0,1.82.24,8.17,8.17,0,0,0,1.28-.14,7,7,0,0,0,1.12-.25h.52v2.85c-.67.11-1.37.2-2.12.27S841.41,178.81,840.32,178.81Z"/><path class="cls-1" d="M869.8,178.9q-5.87,0-9.32-2.34A7.48,7.48,0,0,1,857,170a7.55,7.55,0,0,1,3.46-6.51q3.46-2.43,9.33-2.43c1,0,2,0,2.8.12s1.62.18,2.38.32c.6.11,1.25.27,2,.47s1.26.38,1.7.52v4.09H878l-1.19-.66a14.78,14.78,0,0,0-1.63-.75,13.19,13.19,0,0,0-2-.63,9.49,9.49,0,0,0-2.28-.26,11.07,11.07,0,0,0-2.6.29,7.12,7.12,0,0,0-2.25,1,5,5,0,0,0-1.61,1.78,5.37,5.37,0,0,0-.62,2.64,5,5,0,0,0,2.35,4.45,7.15,7.15,0,0,0,2.27.93,11.13,11.13,0,0,0,2.49.29,10.39,10.39,0,0,0,2.47-.28,12.57,12.57,0,0,0,2-.63,13.18,13.18,0,0,0,1.54-.73c.45-.24.83-.46,1.16-.65h.6v4l-1.67.5c-.63.19-1.28.35-1.94.48-.82.16-1.59.28-2.3.37A27.32,27.32,0,0,1,869.8,178.9Z"/><path class="cls-1" d="M900.77,172.09a5.82,5.82,0,0,1-2.66,5c-1.76,1.22-4.27,1.83-7.5,1.83s-5.71-.61-7.49-1.83a6.1,6.1,0,0,1,0-10.09q2.67-1.83,7.49-1.83t7.5,1.84A5.82,5.82,0,0,1,900.77,172.09Zm-6.29,0a5.54,5.54,0,0,0-.29-1.92,3.09,3.09,0,0,0-.8-1.23,3,3,0,0,0-1.22-.67,5.73,5.73,0,0,0-1.56-.2,6.17,6.17,0,0,0-1.49.17,3.16,3.16,0,0,0-1.23.64,3.09,3.09,0,0,0-.84,1.24,5.32,5.32,0,0,0-.31,2A5.15,5.15,0,0,0,887,174a3.18,3.18,0,0,0,.77,1.17,2.81,2.81,0,0,0,1.22.65,6,6,0,0,0,1.63.21,5.65,5.65,0,0,0,1.5-.21,2.81,2.81,0,0,0,1.22-.62,3.3,3.3,0,0,0,.82-1.19A5.29,5.29,0,0,0,894.48,172.12Z"/><path class="cls-1" d="M927.07,178.56v-6.47c0-.63,0-1.17-.05-1.61a2.33,2.33,0,0,0-.32-1.07,1.5,1.5,0,0,0-.81-.61,5.2,5.2,0,0,0-1.55-.19,5.08,5.08,0,0,0-1.39.2,12.17,12.17,0,0,0-1.49.58v9.17H915.3v-6.47c0-.63,0-1.16-.06-1.6a2.34,2.34,0,0,0-.33-1.08,1.47,1.47,0,0,0-.81-.61,5.1,5.1,0,0,0-1.53-.19,4.81,4.81,0,0,0-1.47.23,14.19,14.19,0,0,0-1.41.55v9.17h-6.13V165.62h6.13V167a19.43,19.43,0,0,1,2.84-1.31,9.08,9.08,0,0,1,3-.47,8.38,8.38,0,0,1,3.17.56,4.39,4.39,0,0,1,2.08,1.69,18.89,18.89,0,0,1,3.34-1.67,9,9,0,0,1,3.18-.58,9.25,9.25,0,0,1,2.45.29,5.22,5.22,0,0,1,1.84.86,4,4,0,0,1,1.23,1.48,5.12,5.12,0,0,1,.41,2.24v8.43Z"/><path class="cls-1" d="M956.39,171.91a6.09,6.09,0,0,1-2.39,5,9.18,9.18,0,0,1-5.9,1.9,13.52,13.52,0,0,1-2.55-.21,16.42,16.42,0,0,1-2.32-.68v5.39H937.1V165.62h6.13V167a17.16,17.16,0,0,1,2.75-1.23,10.33,10.33,0,0,1,3.24-.47,7.36,7.36,0,0,1,5.29,1.78A6.43,6.43,0,0,1,956.39,171.91Zm-6.27.08a3.65,3.65,0,0,0-.89-2.74,3.85,3.85,0,0,0-2.76-.86,7.54,7.54,0,0,0-1.63.18,7.37,7.37,0,0,0-1.61.52v6.51a5.78,5.78,0,0,0,1.08.19c.39,0,.86.06,1.39.06a4.9,4.9,0,0,0,3.33-1A3.69,3.69,0,0,0,950.12,172Z"/><path class="cls-1" d="M965.44,178.56h-6.13V160.62h6.13Z"/><path class="cls-1" d="M979.73,178.91q-5.57,0-8.54-1.76a5.49,5.49,0,0,1-3-5A5.84,5.84,0,0,1,971,167.1c1.84-1.26,4.43-1.89,7.74-1.89,3,0,5.28.54,6.8,1.6a5.29,5.29,0,0,1,2.27,4.59v1.45H974.37a2.75,2.75,0,0,0,.58,1.51,3.52,3.52,0,0,0,1.29,1,6.76,6.76,0,0,0,1.84.51,14.92,14.92,0,0,0,2.3.16,13.32,13.32,0,0,0,2.1-.16,14.88,14.88,0,0,0,1.89-.4c.5-.15,1-.31,1.39-.48s.78-.32,1-.45h.64v3.33l-1.37.37c-.41.11-1,.22-1.71.34s-1.35.2-2.06.27S980.75,178.91,979.73,178.91Zm2-8.49a2.46,2.46,0,0,0-.9-1.95,4.22,4.22,0,0,0-2.6-.66,4.85,4.85,0,0,0-2.8.7,2.5,2.5,0,0,0-1.11,1.91Z"/><path class="cls-1" d="M1010.35,178.56h-7.18l-3.75-3.72-3.85,3.72h-7l7.23-6.47-7.11-6.47h7.18l3.68,3.65,3.69-3.65h7.06l-7.13,6.37Z"/><path class="cls-1" d="M1020.16,174l-6.13,8.8h-3.73l3.45-8.8Z"/><path class="cls-1" d="M1042.86,178.87a31.38,31.38,0,0,1-5.26-.38,37.76,37.76,0,0,1-4.22-.94v-4.08h.6a17.41,17.41,0,0,0,4.33,1.68,19,19,0,0,0,4.59.59c.37,0,.86,0,1.48-.08a7.54,7.54,0,0,0,1.48-.26,3.42,3.42,0,0,0,1.15-.55,1.08,1.08,0,0,0,.48-.92,1.2,1.2,0,0,0-.78-1.05,6.06,6.06,0,0,0-1.83-.59c-.89-.15-1.84-.3-2.85-.44s-2-.31-2.83-.51a9.63,9.63,0,0,1-4.34-1.89,3.82,3.82,0,0,1-1.32-3c0-1.61,1-2.91,3.1-3.9a17.74,17.74,0,0,1,7.74-1.5,34.23,34.23,0,0,1,4.64.32,26.68,26.68,0,0,1,4.12.84v3.92h-.58a15.46,15.46,0,0,0-3.54-1.39,16.74,16.74,0,0,0-4.3-.56,14.08,14.08,0,0,0-1.54.08,8.1,8.1,0,0,0-1.44.31,3.05,3.05,0,0,0-1.06.55,1,1,0,0,0-.45.81,1.16,1.16,0,0,0,.71,1,9.67,9.67,0,0,0,2.74.7l2.53.38c.82.13,1.68.29,2.61.51a10.08,10.08,0,0,1,4,1.73,3.54,3.54,0,0,1,1.33,2.88q0,2.56-3.06,4.12A18.48,18.48,0,0,1,1042.86,178.87Z"/><path class="cls-1" d="M1068,177.19l-1.13.62a7.17,7.17,0,0,1-1.34.55,11.41,11.41,0,0,1-1.6.41,13.46,13.46,0,0,1-2.18.14,7.67,7.67,0,0,1-4.34-1.16,3.4,3.4,0,0,1-1.72-2.9,3.15,3.15,0,0,1,.88-2.33,6,6,0,0,1,2.52-1.41,18.43,18.43,0,0,1,4-.73c1.55-.14,3.2-.25,5-.33V170a1.52,1.52,0,0,0-1.2-1.48,12,12,0,0,0-3.6-.41,15.06,15.06,0,0,0-2.54.26,28.66,28.66,0,0,0-2.84.67h-.52v-3.13c.6-.11,1.58-.25,2.94-.41a37.14,37.14,0,0,1,4.1-.23q5.07,0,7.4,1.11a3.6,3.6,0,0,1,2.32,3.39v8.81H1068Zm0-2v-2.69l-2.52.17a12,12,0,0,0-1.89.3,2.85,2.85,0,0,0-1.25.56,1.23,1.23,0,0,0-.45,1,1.27,1.27,0,0,0,.74,1.25,5.65,5.65,0,0,0,2.2.34,6,6,0,0,0,1.65-.25A5.38,5.38,0,0,0,1068,175.18Z"/><path class="cls-1" d="M1097.25,171.91a6.06,6.06,0,0,1-2.39,5,9.15,9.15,0,0,1-5.89,1.9,13.64,13.64,0,0,1-2.56-.21,16.7,16.7,0,0,1-2.31-.68v5.39H1078V165.62h6.13V167a16.78,16.78,0,0,1,2.75-1.23,10.24,10.24,0,0,1,3.24-.47,7.36,7.36,0,0,1,5.29,1.78A6.43,6.43,0,0,1,1097.25,171.91ZM1091,172a3.65,3.65,0,0,0-.88-2.74,3.85,3.85,0,0,0-2.76-.86,7.56,7.56,0,0,0-1.64.18,7.29,7.29,0,0,0-1.6.52v6.51a5.52,5.52,0,0,0,1.07.19c.4,0,.86.06,1.4.06a4.94,4.94,0,0,0,3.33-1A3.69,3.69,0,0,0,1091,172Z"/><path class="cls-1" d="M1110.39,178.91c-3.72,0-6.56-.59-8.54-1.76a5.49,5.49,0,0,1-3-5,5.84,5.84,0,0,1,2.77-5.06q2.76-1.89,7.74-1.89c3,0,5.28.54,6.79,1.6a5.27,5.27,0,0,1,2.28,4.59v1.45H1105a2.74,2.74,0,0,0,.57,1.51,3.48,3.48,0,0,0,1.3,1,6.76,6.76,0,0,0,1.84.51,14.88,14.88,0,0,0,2.29.16,13.35,13.35,0,0,0,2.11-.16,14.88,14.88,0,0,0,1.89-.4c.5-.15,1-.31,1.39-.48s.77-.32,1-.45h.65v3.33l-1.37.37c-.42.11-1,.22-1.71.34s-1.35.2-2.06.27S1111.4,178.91,1110.39,178.91Zm2-8.49a2.52,2.52,0,0,0-.9-1.95,4.24,4.24,0,0,0-2.6-.66,4.81,4.81,0,0,0-2.8.7,2.5,2.5,0,0,0-1.11,1.91Z"/><path class="cls-1" d="M1127.61,178.56h-6.13V160.62h6.13Z"/><path class="cls-1" d="M1141.91,178.91c-3.72,0-6.56-.59-8.54-1.76a5.49,5.49,0,0,1-3-5,5.84,5.84,0,0,1,2.77-5.06q2.76-1.89,7.74-1.89c3,0,5.28.54,6.79,1.6a5.27,5.27,0,0,1,2.28,4.59v1.45h-13.43a2.82,2.82,0,0,0,.57,1.51,3.48,3.48,0,0,0,1.3,1,6.76,6.76,0,0,0,1.84.51,14.88,14.88,0,0,0,2.29.16,13.35,13.35,0,0,0,2.11-.16,14.88,14.88,0,0,0,1.89-.4c.5-.15,1-.31,1.39-.48s.77-.32,1-.45h.65v3.33l-1.37.37c-.42.11-1,.22-1.71.34s-1.35.2-2.06.27S1142.92,178.91,1141.91,178.91Zm2-8.49a2.52,2.52,0,0,0-.9-1.95,4.24,4.24,0,0,0-2.6-.66,4.81,4.81,0,0,0-2.8.7,2.5,2.5,0,0,0-1.11,1.91Z"/><path class="cls-1" d="M1188.11,178.56h-8l-7.26-6.29h-2.35v6.29H1164V161.4h10.5a37.69,37.69,0,0,1,3.78.17,11,11,0,0,1,3,.75,6.22,6.22,0,0,1,2.22,1.49,3.27,3.27,0,0,1,.82,2.3,4.14,4.14,0,0,1-1.34,3.2,9.67,9.67,0,0,1-3.61,1.95Zm-10.54-11.91a1.72,1.72,0,0,0-.38-1.11,2.45,2.45,0,0,0-1.25-.72,6.23,6.23,0,0,0-1.37-.22c-.5,0-1.12,0-1.87,0h-2.19v4.62h1.87a21.46,21.46,0,0,0,2.32-.11,4.55,4.55,0,0,0,1.62-.47,2.38,2.38,0,0,0,.94-.77A2.08,2.08,0,0,0,1177.57,166.65Z"/><path class="cls-1" d="M1207.63,172.09a5.82,5.82,0,0,1-2.66,5q-2.65,1.83-7.5,1.83t-7.49-1.83a6.1,6.1,0,0,1,0-10.09q2.67-1.83,7.49-1.83t7.49,1.84A5.81,5.81,0,0,1,1207.63,172.09Zm-6.29,0a5.54,5.54,0,0,0-.29-1.92,3.09,3.09,0,0,0-.8-1.23,3,3,0,0,0-1.22-.67,5.73,5.73,0,0,0-1.56-.2,6.17,6.17,0,0,0-1.49.17,2.94,2.94,0,0,0-2.07,1.88,5.32,5.32,0,0,0-.31,2,5.39,5.39,0,0,0,.29,1.92,3.33,3.33,0,0,0,.78,1.17,2.81,2.81,0,0,0,1.22.65,5.91,5.91,0,0,0,1.63.21,5.65,5.65,0,0,0,1.5-.21,2.72,2.72,0,0,0,1.21-.62,3.2,3.2,0,0,0,.83-1.19A5.51,5.51,0,0,0,1201.34,172.12Z"/><path class="cls-1" d="M1221.41,177.19l-1.13.62a7.47,7.47,0,0,1-1.34.55,11.54,11.54,0,0,1-1.61.41,13.37,13.37,0,0,1-2.18.14,7.61,7.61,0,0,1-4.33-1.16,3.39,3.39,0,0,1-1.73-2.9,3.19,3.19,0,0,1,.88-2.33,6,6,0,0,1,2.52-1.41,18.53,18.53,0,0,1,4-.73c1.54-.14,3.2-.25,5-.33V170a1.52,1.52,0,0,0-1.2-1.48,12,12,0,0,0-3.6-.41,15.06,15.06,0,0,0-2.54.26,28.47,28.47,0,0,0-2.83.67h-.53v-3.13c.61-.11,1.59-.25,2.94-.41a37.28,37.28,0,0,1,4.1-.23c3.39,0,5.85.37,7.4,1.11a3.59,3.59,0,0,1,2.32,3.39v8.81h-6.09Zm0-2v-2.69l-2.53.17a12,12,0,0,0-1.89.3,3,3,0,0,0-1.25.56,1.23,1.23,0,0,0-.45,1,1.26,1.26,0,0,0,.75,1.25,5.61,5.61,0,0,0,2.2.34,6,6,0,0,0,1.64-.25A5.57,5.57,0,0,0,1221.41,175.18Z"/><path class="cls-1" d="M1249.52,178.56h-6.13v-1.35c-.39.22-.85.45-1.35.69a11.53,11.53,0,0,1-1.34.56,9.91,9.91,0,0,1-1.46.34,10.56,10.56,0,0,1-1.71.12,7.5,7.5,0,0,1-5.33-1.83,6.4,6.4,0,0,1-2-4.9,6.08,6.08,0,0,1,.67-2.94,6.76,6.76,0,0,1,1.83-2.17,8.17,8.17,0,0,1,2.6-1.33,10.33,10.33,0,0,1,3.22-.49,12.52,12.52,0,0,1,2.53.21,19.81,19.81,0,0,1,2.3.66v-5.51h6.13Zm-6.13-3.57v-6.35a6.24,6.24,0,0,0-1.19-.25,9,9,0,0,0-1.26-.1,4.81,4.81,0,0,0-3.32,1,3.67,3.67,0,0,0-1.11,2.84,3.71,3.71,0,0,0,.88,2.77,4,4,0,0,0,2.87.85,6.57,6.57,0,0,0,1.63-.21A6.66,6.66,0,0,0,1243.39,175Z"/><path class="cls-1" d="M1261,174l-6.13,8.8h-3.73l3.45-8.8Z"/><path class="cls-1" d="M631.93,224a3.61,3.61,0,0,1-.73,2.25,5.57,5.57,0,0,1-2,1.6,11.6,11.6,0,0,1-3.23,1.09,26.21,26.21,0,0,1-4.48.32H611.07V212.07h9.22q2.87,0,4.35.15a11.65,11.65,0,0,1,2.77.6,4.7,4.7,0,0,1,2.1,1.33,2.9,2.9,0,0,1,.69,1.91,3.11,3.11,0,0,1-1,2.24,5.69,5.69,0,0,1-2.63,1.44v.09a8.74,8.74,0,0,1,3.87,1.37A3.23,3.23,0,0,1,631.93,224Zm-8.39-7a1.51,1.51,0,0,0-.32-.86,1.84,1.84,0,0,0-1-.63,6.11,6.11,0,0,0-1.53-.2l-2.64,0h-.45v3.63h.82l2.36,0a5.88,5.88,0,0,0,1.39-.24,2,2,0,0,0,1.09-.67A1.77,1.77,0,0,0,623.54,216.93Zm1.65,7a1.58,1.58,0,0,0-.49-1.24,3.25,3.25,0,0,0-1.47-.68,7.49,7.49,0,0,0-1.64-.17l-2.79,0h-1.21v4.3h.35l3.54,0a8.23,8.23,0,0,0,2-.31,2.58,2.58,0,0,0,1.31-.75A1.68,1.68,0,0,0,625.19,223.9Z"/><path class="cls-1" d="M645.22,229.58q-5.57,0-8.54-1.75a5.5,5.5,0,0,1-3-5,5.84,5.84,0,0,1,2.77-5.06q2.76-1.89,7.74-1.89,4.51,0,6.8,1.6a5.29,5.29,0,0,1,2.27,4.59v1.45H639.86a2.78,2.78,0,0,0,.58,1.51,3.44,3.44,0,0,0,1.29,1,6.76,6.76,0,0,0,1.84.51,14.92,14.92,0,0,0,2.3.16,15,15,0,0,0,5.38-1q.64-.25,1-.45h.64v3.33l-1.37.37c-.42.11-1,.22-1.71.34s-1.35.2-2.06.27S646.23,229.58,645.22,229.58Zm2-8.48a2.46,2.46,0,0,0-.9-1.95,4.21,4.21,0,0,0-2.6-.67,4.85,4.85,0,0,0-2.8.71,2.49,2.49,0,0,0-1.11,1.91Z"/><path class="cls-1" d="M674.72,229.24h-6.16v-6.42a13.47,13.47,0,0,0-.1-1.56,2.43,2.43,0,0,0-.36-1.15,1.75,1.75,0,0,0-.91-.63,5.31,5.31,0,0,0-1.59-.19,6.22,6.22,0,0,0-1.53.19,8.54,8.54,0,0,0-1.64.58v9.18H656.3v-13h6.13v1.43a16.54,16.54,0,0,1,2.93-1.31,9.89,9.89,0,0,1,3.16-.47,7.3,7.3,0,0,1,4.61,1.25,4.33,4.33,0,0,1,1.59,3.62Z"/><path class="cls-1" d="M684.87,214.45h-6.48V211.3h6.48Zm-.18,14.79h-6.13v-13h6.13Z"/><path class="cls-1" d="M707.09,229.24h-6.16v-6.42a13.47,13.47,0,0,0-.1-1.56,2.43,2.43,0,0,0-.36-1.15,1.75,1.75,0,0,0-.91-.63,5.31,5.31,0,0,0-1.59-.19,6.22,6.22,0,0,0-1.53.19,8.54,8.54,0,0,0-1.64.58v9.18h-6.13v-13h6.13v1.43a16.54,16.54,0,0,1,2.93-1.31,9.89,9.89,0,0,1,3.16-.47,7.3,7.3,0,0,1,4.61,1.25,4.33,4.33,0,0,1,1.59,3.62Z"/><path class="cls-1" d="M733.73,229.57c-3.91,0-7-.77-9.32-2.33a7.91,7.91,0,0,1,0-13.07q3.47-2.43,9.33-2.43c1,0,2,0,2.8.11s1.63.19,2.38.33,1.25.27,2,.47,1.27.37,1.7.52v4.09h-.67l-1.19-.66a16.82,16.82,0,0,0-1.63-.76,13.87,13.87,0,0,0-2-.62,9.51,9.51,0,0,0-2.29-.26,10.62,10.62,0,0,0-2.6.29,7.12,7.12,0,0,0-2.25,1,5,5,0,0,0-1.6,1.78,5.27,5.27,0,0,0,1.72,7.09,7.49,7.49,0,0,0,2.27.93,11.22,11.22,0,0,0,2.5.29,10.51,10.51,0,0,0,2.47-.29,12,12,0,0,0,2-.62,14.93,14.93,0,0,0,1.54-.73c.44-.25.83-.46,1.15-.66h.6v4l-1.67.5a19.63,19.63,0,0,1-1.94.48c-.82.16-1.58.28-2.29.37A28.14,28.14,0,0,1,733.73,229.57Z"/><path class="cls-1" d="M752.09,214.45h-6.48V211.3h6.48Zm-.17,14.79h-6.13v-13h6.13Z"/><path class="cls-1" d="M763.63,229.49a11.2,11.2,0,0,1-5.45-1,3.57,3.57,0,0,1-1.71-3.32v-6h-2.35v-2.82h2.35v-3.7h6.13v3.7h5.9v2.82h-5.9v4.58c0,.46,0,.85,0,1.19a1.68,1.68,0,0,0,.28.91,1.63,1.63,0,0,0,.87.64,5.22,5.22,0,0,0,1.81.24,8.4,8.4,0,0,0,1.29-.14,8.14,8.14,0,0,0,1.11-.25h.52v2.84c-.66.12-1.37.21-2.12.27S764.72,229.49,763.63,229.49Z"/><path class="cls-1" d="M790,216.29,780.11,234h-6.59l3-5.06-7.21-12.64h6.44l4.14,8.12,3.87-8.12Z"/><path class="cls-1" d="M797.38,224.71l-6.13,8.79h-3.73l3.45-8.79Z"/><path class="cls-1" d="M812,229.24V212.07h17.64v3.28H818.54v3h10.24v3.27H818.54V226h11.12v3.27Z"/><path class="cls-1" d="M851.11,229.24H845v-1.35c-.39.21-.85.45-1.35.69a11.53,11.53,0,0,1-1.34.56,11.38,11.38,0,0,1-1.46.34,10.56,10.56,0,0,1-1.71.12,7.5,7.5,0,0,1-5.33-1.84,6.37,6.37,0,0,1-2-4.9,6.19,6.19,0,0,1,.66-2.94,6.89,6.89,0,0,1,1.84-2.16,8.17,8.17,0,0,1,2.6-1.33,10.33,10.33,0,0,1,3.22-.49,12.52,12.52,0,0,1,2.53.21,19.81,19.81,0,0,1,2.3.66V211.3h6.13ZM845,225.67v-6.36a6.34,6.34,0,0,0-1.19-.24,9,9,0,0,0-1.26-.1,4.81,4.81,0,0,0-3.32,1,4.45,4.45,0,0,0-.23,5.6,4,4,0,0,0,2.87.86,6.57,6.57,0,0,0,1.63-.21A7.18,7.18,0,0,0,845,225.67Z"/><path class="cls-1" d="M874.22,222.77a5.79,5.79,0,0,1-2.65,5q-2.66,1.84-7.51,1.84t-7.48-1.84a6.08,6.08,0,0,1,0-10.08q2.67-1.83,7.48-1.83c3.23,0,5.72.61,7.5,1.84A5.81,5.81,0,0,1,874.22,222.77Zm-6.29,0a5.54,5.54,0,0,0-.28-1.91,3.13,3.13,0,0,0-.8-1.23,3,3,0,0,0-1.23-.68,6.06,6.06,0,0,0-1.56-.19,6.23,6.23,0,0,0-1.49.17,2.94,2.94,0,0,0-1.22.64,3.12,3.12,0,0,0-.84,1.23,5.34,5.34,0,0,0-.32,2,5.08,5.08,0,0,0,.3,1.92,3.27,3.27,0,0,0,.77,1.17,3,3,0,0,0,1.23.66,5.91,5.91,0,0,0,1.63.21,5.52,5.52,0,0,0,1.49-.21,2.87,2.87,0,0,0,1.22-.62,3.18,3.18,0,0,0,.82-1.19A5.31,5.31,0,0,0,867.93,222.79Z"/><path class="cls-1" d="M896.4,229.55a32.69,32.69,0,0,1-5.27-.38,35.88,35.88,0,0,1-4.21-.95v-4.08h.6a17.35,17.35,0,0,0,4.32,1.69,19.12,19.12,0,0,0,4.59.58c.38,0,.87,0,1.48-.08a6.82,6.82,0,0,0,1.48-.25,3.47,3.47,0,0,0,1.16-.55,1.1,1.1,0,0,0,.47-.93,1.18,1.18,0,0,0-.77-1,6.12,6.12,0,0,0-1.84-.59c-.89-.16-1.84-.3-2.85-.44s-1.95-.31-2.82-.51a10,10,0,0,1-4.35-1.89,3.85,3.85,0,0,1-1.31-3q0-2.41,3.1-3.9a17.74,17.74,0,0,1,7.74-1.5,35.77,35.77,0,0,1,4.63.31,28,28,0,0,1,4.13.85v3.91h-.58a15.84,15.84,0,0,0-3.55-1.38,16.26,16.26,0,0,0-4.3-.56,12.06,12.06,0,0,0-1.54.08,7.37,7.37,0,0,0-1.43.31,2.82,2.82,0,0,0-1.06.55,1,1,0,0,0-.45.81,1.17,1.17,0,0,0,.71,1,9.47,9.47,0,0,0,2.74.7l2.53.38c.81.12,1.68.29,2.6.51a10.14,10.14,0,0,1,4,1.73,3.56,3.56,0,0,1,1.32,2.88c0,1.7-1,3.08-3.06,4.11A18.28,18.28,0,0,1,896.4,229.55Z"/><path class="cls-1" d="M918,229.49a11.17,11.17,0,0,1-5.45-1,3.57,3.57,0,0,1-1.71-3.32v-6H908.5v-2.82h2.35v-3.7H917v3.7h5.9v2.82H917v4.58c0,.46,0,.85,0,1.19a1.68,1.68,0,0,0,.28.91,1.64,1.64,0,0,0,.86.64,5.32,5.32,0,0,0,1.82.24,8.17,8.17,0,0,0,1.28-.14,8,8,0,0,0,1.12-.25h.52v2.84c-.66.12-1.37.21-2.12.27S919.1,229.49,918,229.49Z"/><path class="cls-1" d="M936.4,227.87l-1.13.62a7.78,7.78,0,0,1-1.33.55,13.13,13.13,0,0,1-1.61.41,13.59,13.59,0,0,1-2.18.13,7.61,7.61,0,0,1-4.33-1.15,3.41,3.41,0,0,1-1.73-2.9,3.15,3.15,0,0,1,.88-2.33,6,6,0,0,1,2.52-1.41,19,19,0,0,1,4-.74c1.54-.13,3.19-.24,5-.32v-.07a1.51,1.51,0,0,0-1.2-1.48,12,12,0,0,0-3.6-.41,15.06,15.06,0,0,0-2.54.26c-1,.17-1.91.4-2.84.66h-.52v-3.12c.6-.12,1.59-.25,2.94-.41a34.85,34.85,0,0,1,4.1-.24c3.38,0,5.85.38,7.4,1.12a3.59,3.59,0,0,1,2.32,3.39v8.81h-6.1Zm0-2v-2.7l-2.52.18a12,12,0,0,0-1.89.3,2.9,2.9,0,0,0-1.25.56,1.21,1.21,0,0,0-.45,1,1.24,1.24,0,0,0,.75,1.25,5.41,5.41,0,0,0,2.19.34,6,6,0,0,0,1.65-.24A5.68,5.68,0,0,0,936.4,225.86Z"/><path class="cls-1" d="M954,229.49a11.21,11.21,0,0,1-5.46-1,3.57,3.57,0,0,1-1.71-3.32v-6h-2.34v-2.82h2.34v-3.7h6.13v3.7h5.91v2.82h-5.91v4.58c0,.46,0,.85,0,1.19a1.77,1.77,0,0,0,.28.91,1.67,1.67,0,0,0,.87.64,5.26,5.26,0,0,0,1.81.24,10.74,10.74,0,0,0,2.4-.39h.53v2.84c-.67.12-1.37.21-2.12.27S955,229.49,954,229.49Z"/><path class="cls-1" d="M971.21,229.58c-3.72,0-6.56-.58-8.54-1.75a5.5,5.5,0,0,1-3-5,5.84,5.84,0,0,1,2.77-5.06q2.76-1.89,7.74-1.89c3,0,5.28.53,6.79,1.6a5.27,5.27,0,0,1,2.28,4.59v1.45H965.85a2.77,2.77,0,0,0,.57,1.51,3.48,3.48,0,0,0,1.3,1,6.76,6.76,0,0,0,1.84.51,14.79,14.79,0,0,0,2.29.16,13.35,13.35,0,0,0,2.11-.16,13.92,13.92,0,0,0,1.89-.41,14.11,14.11,0,0,0,1.39-.47c.43-.17.77-.32,1-.45h.65v3.33l-1.38.37c-.41.11-1,.22-1.7.34s-1.35.2-2.06.27S972.22,229.58,971.21,229.58Zm2-8.48a2.49,2.49,0,0,0-.91-1.95,4.19,4.19,0,0,0-2.6-.67,4.8,4.8,0,0,0-2.79.71,2.49,2.49,0,0,0-1.11,1.91Z"/></g></g></svg>